44 44 35
424669.837228 6512205.137599 208.180000
49.000000 35.000000 25.000000 25.000000 25.000000 25.000000 25.000000 25.000000 25.000000 25.000000 25.000000 25.000000 25.000000 25.000000 25.000000 25.000000 25.000000 25.000000 25.000000 25.000000 25.000000 25.000000 25.000000 25.000000 25.000000 25.000000 25.000000 25.000000 25.000000 25.000000 25.000000 25.000000 25.000000 25.000000 25.000000 25.000000 25.000000 25.000000 25.000000 25.000000 25.000000 25.000000 35.000000 49.000000 
49.000000 35.000000 25.000000 25.000000 25.000000 25.000000 25.000000 25.000000 25.000000 25.000000 25.000000 25.000000 25.000000 25.000000 25.000000 25.000000 25.000000 25.000000 25.000000 25.000000 25.000000 25.000000 25.000000 25.000000 25.000000 25.000000 25.000000 25.000000 25.000000 25.000000 25.000000 25.000000 25.000000 25.000000 25.000000 25.000000 25.000000 25.000000 25.000000 25.000000 25.000000 25.000000 35.000000 49.000000 
12.500000 12.500000 12.500000 12.500000 12.500000 12.500000 12.500000 12.500000 12.500000 12.500000 12.500000 12.500000 12.500000 12.500000 12.500000 12.500000 12.500000 12.500000 12.500000 12.500000 12.500000 12.500000 12.500000 12.500000 12.500000 12.500000 12.500000 12.500000 12.500000 12.500000 31.250000 39.062500 48.828125 61.035156 76.293945 
